# xmcd CD database file
#
# Track frame offsets:
#	150
#	20952
#	42165
#	69517
#
# Disc length: 1119 seconds
#
# Revision: 0
# Processed by: cddbd v1.5.1PL0 Copyright (c) Steve Scherf et al.
# Submitted via: CDex 1.51
#
DISCID=32045d04
DTITLE=Kick The Can Crew - young animal e.p.
DYEAR=2000
DGENRE=Hip-Hop
TTITLE0=Down by Law feat. Crazy-A
TTITLE1=タカオニ2000
TTITLE2=one for the what, two for the who part 2
TTITLE3=灼熱舞踏会
EXTD=YEAR: 2000
EXTT0=
EXTT1=
EXTT2=
EXTT3=
PLAYORDER=
